<svg width="320" height="91" viewBox="0 0 320 91" fill="none" xmlns="http://www.w3.org/2000/svg">
<path d="M147.36 86.24C146.2 86.24 145.187 85.9667 144.32 85.42C143.467 84.86 142.88 84.1067 142.56 83.16L144.52 82.22C144.8 82.8333 145.187 83.3133 145.68 83.66C146.187 84.0067 146.747 84.18 147.36 84.18C147.84 84.18 148.22 84.0733 148.5 83.86C148.78 83.6467 148.92 83.3667 148.92 83.02C148.92 82.8067 148.86 82.6333 148.74 82.5C148.633 82.3533 148.48 82.2333 148.28 82.14C148.093 82.0333 147.887 81.9467 147.66 81.88L145.88 81.38C144.96 81.1133 144.26 80.7067 143.78 80.16C143.313 79.6133 143.08 78.9667 143.08 78.22C143.08 77.5533 143.247 76.9733 143.58 76.48C143.927 75.9733 144.4 75.58 145 75.3C145.613 75.02 146.313 74.88 147.1 74.88C148.127 74.88 149.033 75.1267 149.82 75.62C150.607 76.1133 151.167 76.8067 151.5 77.7L149.5 78.64C149.313 78.1467 149 77.7533 148.56 77.46C148.12 77.1667 147.627 77.02 147.08 77.02C146.64 77.02 146.293 77.12 146.04 77.32C145.787 77.52 145.66 77.78 145.66 78.1C145.66 78.3 145.713 78.4733 145.82 78.62C145.927 78.7667 146.073 78.8867 146.26 78.98C146.46 79.0733 146.687 79.16 146.94 79.24L148.68 79.76C149.573 80.0267 150.26 80.4267 150.74 80.96C151.233 81.4933 151.48 82.1467 151.48 82.92C151.48 83.5733 151.307 84.1533 150.96 84.66C150.613 85.1533 150.133 85.54 149.52 85.82C148.907 86.1 148.187 86.24 147.36 86.24ZM158.813 86.24C157.747 86.24 156.773 85.9933 155.893 85.5C155.027 85.0067 154.333 84.3333 153.813 83.48C153.307 82.6267 153.053 81.6533 153.053 80.56C153.053 79.4667 153.307 78.4933 153.813 77.64C154.333 76.7867 155.027 76.1133 155.893 75.62C156.76 75.1267 157.733 74.88 158.813 74.88C159.88 74.88 160.847 75.1267 161.713 75.62C162.58 76.1133 163.267 76.7867 163.773 77.64C164.293 78.48 164.553 79.4533 164.553 80.56C164.553 81.6533 164.293 82.6267 163.773 83.48C163.253 84.3333 162.56 85.0067 161.693 85.5C160.827 85.9933 159.867 86.24 158.813 86.24ZM158.813 83.84C159.4 83.84 159.913 83.7 160.353 83.42C160.807 83.14 161.16 82.7533 161.413 82.26C161.68 81.7533 161.813 81.1867 161.813 80.56C161.813 79.92 161.68 79.36 161.413 78.88C161.16 78.3867 160.807 78 160.353 77.72C159.913 77.4267 159.4 77.28 158.813 77.28C158.213 77.28 157.687 77.4267 157.233 77.72C156.78 78 156.42 78.3867 156.153 78.88C155.9 79.36 155.773 79.92 155.773 80.56C155.773 81.1867 155.9 81.7533 156.153 82.26C156.42 82.7533 156.78 83.14 157.233 83.42C157.687 83.7 158.213 83.84 158.813 83.84ZM167.566 86V77.46H165.646V75.12H167.566V74.76C167.566 73.9333 167.733 73.2333 168.066 72.66C168.413 72.0733 168.893 71.6267 169.506 71.32C170.119 71.0133 170.846 70.86 171.686 70.86C171.846 70.86 172.019 70.8733 172.206 70.9C172.406 70.9133 172.573 70.9333 172.706 70.96V73.22C172.573 73.1933 172.446 73.18 172.326 73.18C172.219 73.1667 172.119 73.16 172.026 73.16C171.439 73.16 170.986 73.2933 170.666 73.56C170.346 73.8133 170.186 74.2133 170.186 74.76V75.12H172.606V77.46H170.186V86H167.566ZM179.879 86.12C178.653 86.12 177.699 85.7867 177.019 85.12C176.353 84.44 176.019 83.4867 176.019 82.26V77.46H174.139V75.12H174.339C174.873 75.12 175.286 74.98 175.579 74.7C175.873 74.42 176.019 74.0133 176.019 73.48V72.64H178.639V75.12H181.139V77.46H178.639V82.12C178.639 82.48 178.699 82.7867 178.819 83.04C178.953 83.2933 179.153 83.4867 179.419 83.62C179.699 83.7533 180.053 83.82 180.479 83.82C180.573 83.82 180.679 83.8133 180.799 83.8C180.933 83.7867 181.059 83.7733 181.179 83.76V86C180.993 86.0267 180.779 86.0533 180.539 86.08C180.299 86.1067 180.079 86.12 179.879 86.12ZM185.921 86L182.181 75.12H184.941L187.681 83.38L186.721 83.36L189.641 75.12H191.961L194.861 83.36L193.901 83.38L196.641 75.12H199.401L195.661 86H193.321L190.361 77.38H191.241L188.241 86H185.921ZM203.747 86.24C202.987 86.24 202.327 86.1133 201.767 85.86C201.207 85.6067 200.773 85.2467 200.467 84.78C200.16 84.3 200.007 83.7467 200.007 83.12C200.007 82.52 200.14 81.9867 200.407 81.52C200.673 81.04 201.087 80.64 201.647 80.32C202.207 80 202.913 79.7733 203.767 79.64L207.327 79.06V81.06L204.267 81.58C203.747 81.6733 203.36 81.84 203.107 82.08C202.853 82.32 202.727 82.6333 202.727 83.02C202.727 83.3933 202.867 83.6933 203.147 83.92C203.44 84.1333 203.8 84.24 204.227 84.24C204.773 84.24 205.253 84.1267 205.667 83.9C206.093 83.66 206.42 83.3333 206.647 82.92C206.887 82.5067 207.007 82.0533 207.007 81.56V78.76C207.007 78.2933 206.82 77.9067 206.447 77.6C206.087 77.28 205.607 77.12 205.007 77.12C204.447 77.12 203.947 77.2733 203.507 77.58C203.08 77.8733 202.767 78.2667 202.567 78.76L200.427 77.72C200.64 77.1467 200.973 76.6533 201.427 76.24C201.893 75.8133 202.44 75.48 203.067 75.24C203.693 75 204.373 74.88 205.107 74.88C206 74.88 206.787 75.0467 207.467 75.38C208.147 75.7 208.673 76.1533 209.047 76.74C209.433 77.3133 209.627 77.9867 209.627 78.76V86H207.147V84.14L207.707 84.1C207.427 84.5667 207.093 84.96 206.707 85.28C206.32 85.5867 205.88 85.8267 205.387 86C204.893 86.16 204.347 86.24 203.747 86.24ZM212.048 86V75.12H214.508V77.54L214.308 77.18C214.561 76.3667 214.955 75.8 215.488 75.48C216.035 75.16 216.688 75 217.448 75H218.088V77.32H217.148C216.401 77.32 215.801 77.5533 215.348 78.02C214.895 78.4733 214.668 79.1133 214.668 79.94V86H212.048ZM224.689 86.24C223.569 86.24 222.589 85.9867 221.749 85.48C220.909 84.9733 220.255 84.2867 219.789 83.42C219.322 82.5533 219.089 81.5933 219.089 80.54C219.089 79.4467 219.322 78.48 219.789 77.64C220.269 76.7867 220.915 76.1133 221.729 75.62C222.555 75.1267 223.475 74.88 224.489 74.88C225.342 74.88 226.089 75.02 226.729 75.3C227.382 75.58 227.935 75.9667 228.389 76.46C228.842 76.9533 229.189 77.52 229.429 78.16C229.669 78.7867 229.789 79.4667 229.789 80.2C229.789 80.3867 229.775 80.58 229.749 80.78C229.735 80.98 229.702 81.1533 229.649 81.3H221.249V79.3H228.169L226.929 80.24C227.049 79.6267 227.015 79.08 226.829 78.6C226.655 78.12 226.362 77.74 225.949 77.46C225.549 77.18 225.062 77.04 224.489 77.04C223.942 77.04 223.455 77.18 223.029 77.46C222.602 77.7267 222.275 78.1267 222.049 78.66C221.835 79.18 221.755 79.8133 221.809 80.56C221.755 81.2267 221.842 81.82 222.069 82.34C222.309 82.8467 222.655 83.24 223.109 83.52C223.575 83.8 224.109 83.94 224.709 83.94C225.309 83.94 225.815 83.8133 226.229 83.56C226.655 83.3067 226.989 82.9667 227.229 82.54L229.349 83.58C229.135 84.1 228.802 84.56 228.349 84.96C227.895 85.36 227.355 85.6733 226.729 85.9C226.115 86.1267 225.435 86.24 224.689 86.24ZM240.489 86.24C239.369 86.24 238.389 85.9867 237.549 85.48C236.709 84.9733 236.056 84.2867 235.589 83.42C235.123 82.5533 234.889 81.5933 234.889 80.54C234.889 79.4467 235.123 78.48 235.589 77.64C236.069 76.7867 236.716 76.1133 237.529 75.62C238.356 75.1267 239.276 74.88 240.289 74.88C241.143 74.88 241.889 75.02 242.529 75.3C243.183 75.58 243.736 75.9667 244.189 76.46C244.643 76.9533 244.989 77.52 245.229 78.16C245.469 78.7867 245.589 79.4667 245.589 80.2C245.589 80.3867 245.576 80.58 245.549 80.78C245.536 80.98 245.503 81.1533 245.449 81.3H237.049V79.3H243.969L242.729 80.24C242.849 79.6267 242.816 79.08 242.629 78.6C242.456 78.12 242.163 77.74 241.749 77.46C241.349 77.18 240.863 77.04 240.289 77.04C239.743 77.04 239.256 77.18 238.829 77.46C238.403 77.7267 238.076 78.1267 237.849 78.66C237.636 79.18 237.556 79.8133 237.609 80.56C237.556 81.2267 237.643 81.82 237.869 82.34C238.109 82.8467 238.456 83.24 238.909 83.52C239.376 83.8 239.909 83.94 240.509 83.94C241.109 83.94 241.616 83.8133 242.029 83.56C242.456 83.3067 242.789 82.9667 243.029 82.54L245.149 83.58C244.936 84.1 244.603 84.56 244.149 84.96C243.696 85.36 243.156 85.6733 242.529 85.9C241.916 86.1267 241.236 86.24 240.489 86.24ZM247.575 86V75.12H250.035V77.26L249.835 76.88C250.089 76.2267 250.502 75.7333 251.075 75.4C251.662 75.0533 252.342 74.88 253.115 74.88C253.915 74.88 254.622 75.0533 255.235 75.4C255.862 75.7467 256.349 76.2333 256.695 76.86C257.042 77.4733 257.215 78.1867 257.215 79V86H254.595V79.62C254.595 79.14 254.502 78.7267 254.315 78.38C254.129 78.0333 253.869 77.7667 253.535 77.58C253.215 77.38 252.835 77.28 252.395 77.28C251.969 77.28 251.589 77.38 251.255 77.58C250.922 77.7667 250.662 78.0333 250.475 78.38C250.289 78.7267 250.195 79.14 250.195 79.62V86H247.575ZM264.711 90.4C263.898 90.4 263.144 90.2667 262.451 90C261.758 89.7333 261.158 89.36 260.651 88.88C260.158 88.4133 259.798 87.86 259.571 87.22L262.011 86.3C262.171 86.8067 262.484 87.2133 262.951 87.52C263.431 87.84 264.018 88 264.711 88C265.244 88 265.711 87.9 266.111 87.7C266.524 87.5 266.844 87.2067 267.071 86.82C267.298 86.4467 267.411 85.9933 267.411 85.46V82.98L267.911 83.58C267.538 84.2333 267.038 84.7267 266.411 85.06C265.784 85.3933 265.071 85.56 264.271 85.56C263.258 85.56 262.351 85.3267 261.551 84.86C260.751 84.3933 260.124 83.7533 259.671 82.94C259.218 82.1267 258.991 81.2133 258.991 80.2C258.991 79.1733 259.218 78.26 259.671 77.46C260.124 76.66 260.744 76.0333 261.531 75.58C262.318 75.1133 263.211 74.88 264.211 74.88C265.024 74.88 265.738 75.0533 266.351 75.4C266.978 75.7333 267.498 76.22 267.911 76.86L267.551 77.52V75.12H270.031V85.46C270.031 86.4067 269.798 87.2533 269.331 88C268.878 88.7467 268.251 89.3333 267.451 89.76C266.664 90.1867 265.751 90.4 264.711 90.4ZM264.591 83.14C265.151 83.14 265.638 83.02 266.051 82.78C266.478 82.5267 266.811 82.18 267.051 81.74C267.291 81.3 267.411 80.7933 267.411 80.22C267.411 79.66 267.284 79.16 267.031 78.72C266.791 78.2667 266.458 77.9133 266.031 77.66C265.618 77.4067 265.138 77.28 264.591 77.28C264.044 77.28 263.551 77.4067 263.111 77.66C262.671 77.9133 262.324 78.2667 262.071 78.72C261.831 79.16 261.711 79.66 261.711 80.22C261.711 80.78 261.831 81.28 262.071 81.72C262.324 82.16 262.664 82.5067 263.091 82.76C263.531 83.0133 264.031 83.14 264.591 83.14ZM272.478 86V75.12H275.098V86H272.478ZM272.478 73.9V71.1H275.098V73.9H272.478ZM277.517 86V75.12H279.977V77.26L279.777 76.88C280.03 76.2267 280.444 75.7333 281.017 75.4C281.604 75.0533 282.284 74.88 283.057 74.88C283.857 74.88 284.564 75.0533 285.177 75.4C285.804 75.7467 286.29 76.2333 286.637 76.86C286.984 77.4733 287.157 78.1867 287.157 79V86H284.537V79.62C284.537 79.14 284.444 78.7267 284.257 78.38C284.07 78.0333 283.81 77.7667 283.477 77.58C283.157 77.38 282.777 77.28 282.337 77.28C281.91 77.28 281.53 77.38 281.197 77.58C280.864 77.7667 280.604 78.0333 280.417 78.38C280.23 78.7267 280.137 79.14 280.137 79.62V86H277.517ZM294.532 86.24C293.412 86.24 292.432 85.9867 291.592 85.48C290.752 84.9733 290.099 84.2867 289.632 83.42C289.166 82.5533 288.932 81.5933 288.932 80.54C288.932 79.4467 289.166 78.48 289.632 77.64C290.112 76.7867 290.759 76.1133 291.572 75.62C292.399 75.1267 293.319 74.88 294.332 74.88C295.186 74.88 295.932 75.02 296.572 75.3C297.226 75.58 297.779 75.9667 298.232 76.46C298.686 76.9533 299.032 77.52 299.272 78.16C299.512 78.7867 299.632 79.4667 299.632 80.2C299.632 80.3867 299.619 80.58 299.592 80.78C299.579 80.98 299.546 81.1533 299.492 81.3H291.092V79.3H298.012L296.772 80.24C296.892 79.6267 296.859 79.08 296.672 78.6C296.499 78.12 296.206 77.74 295.792 77.46C295.392 77.18 294.906 77.04 294.332 77.04C293.786 77.04 293.299 77.18 292.872 77.46C292.446 77.7267 292.119 78.1267 291.892 78.66C291.679 79.18 291.599 79.8133 291.652 80.56C291.599 81.2267 291.686 81.82 291.912 82.34C292.152 82.8467 292.499 83.24 292.952 83.52C293.419 83.8 293.952 83.94 294.552 83.94C295.152 83.94 295.659 83.8133 296.072 83.56C296.499 83.3067 296.832 82.9667 297.072 82.54L299.192 83.58C298.979 84.1 298.646 84.56 298.192 84.96C297.739 85.36 297.199 85.6733 296.572 85.9C295.959 86.1267 295.279 86.24 294.532 86.24ZM306.778 86.24C305.658 86.24 304.678 85.9867 303.838 85.48C302.998 84.9733 302.345 84.2867 301.878 83.42C301.412 82.5533 301.178 81.5933 301.178 80.54C301.178 79.4467 301.412 78.48 301.878 77.64C302.358 76.7867 303.005 76.1133 303.818 75.62C304.645 75.1267 305.565 74.88 306.578 74.88C307.432 74.88 308.178 75.02 308.818 75.3C309.472 75.58 310.025 75.9667 310.478 76.46C310.932 76.9533 311.278 77.52 311.518 78.16C311.758 78.7867 311.878 79.4667 311.878 80.2C311.878 80.3867 311.865 80.58 311.838 80.78C311.825 80.98 311.792 81.1533 311.738 81.3H303.338V79.3H310.258L309.018 80.24C309.138 79.6267 309.105 79.08 308.918 78.6C308.745 78.12 308.452 77.74 308.038 77.46C307.638 77.18 307.152 77.04 306.578 77.04C306.032 77.04 305.545 77.18 305.118 77.46C304.692 77.7267 304.365 78.1267 304.138 78.66C303.925 79.18 303.845 79.8133 303.898 80.56C303.845 81.2267 303.932 81.82 304.158 82.34C304.398 82.8467 304.745 83.24 305.198 83.52C305.665 83.8 306.198 83.94 306.798 83.94C307.398 83.94 307.905 83.8133 308.318 83.56C308.745 83.3067 309.078 82.9667 309.318 82.54L311.438 83.58C311.225 84.1 310.892 84.56 310.438 84.96C309.985 85.36 309.445 85.6733 308.818 85.9C308.205 86.1267 307.525 86.24 306.778 86.24ZM313.865 86V75.12H316.325V77.54L316.125 77.18C316.378 76.3667 316.771 75.8 317.305 75.48C317.851 75.16 318.505 75 319.265 75H319.905V77.32H318.965C318.218 77.32 317.618 77.5533 317.165 78.02C316.711 78.4733 316.485 79.1133 316.485 79.94V86H313.865Z" fill="white"/>
<path d="M0.77 58L18.41 5.85H32.83L50.47 58H38.64L35.14 47.36H16.03L12.53 58H0.77ZM19.04 37.91H32.13L24.15 13.27H27.09L19.04 37.91ZM55.1195 58V19.78H64.9195V29.09L63.8695 27.55C64.4295 24.61 65.7829 22.44 67.9295 21.04C70.0762 19.64 72.6429 18.94 75.6295 18.94C78.8029 18.94 81.5795 19.7567 83.9595 21.39C86.3862 22.9767 87.9029 25.1233 88.5095 27.83L85.4995 28.11C86.7595 24.9833 88.5562 22.6733 90.8895 21.18C93.2229 19.6867 95.9529 18.94 99.0795 18.94C101.833 18.94 104.26 19.5467 106.36 20.76C108.506 21.9733 110.186 23.6767 111.4 25.87C112.613 28.0167 113.22 30.5367 113.22 33.43V58H102.72V35.67C102.72 34.1767 102.44 32.8933 101.88 31.82C101.366 30.7467 100.62 29.9067 99.6395 29.3C98.6595 28.6933 97.4695 28.39 96.0695 28.39C94.7162 28.39 93.5262 28.6933 92.4995 29.3C91.5195 29.9067 90.7495 30.7467 90.1895 31.82C89.6762 32.8933 89.4195 34.1767 89.4195 35.67V58H78.9195V35.67C78.9195 34.1767 78.6395 32.8933 78.0795 31.82C77.5662 30.7467 76.8195 29.9067 75.8395 29.3C74.8595 28.6933 73.6695 28.39 72.2695 28.39C70.9162 28.39 69.7262 28.6933 68.6995 29.3C67.7195 29.9067 66.9495 30.7467 66.3895 31.82C65.8762 32.8933 65.6195 34.1767 65.6195 35.67V58H55.1195ZM131.959 58.84C129.206 58.84 126.826 58.3967 124.819 57.51C122.813 56.6233 121.273 55.3633 120.199 53.73C119.126 52.05 118.589 50.0667 118.589 47.78C118.589 45.6333 119.079 43.7433 120.059 42.11C121.039 40.43 122.533 39.03 124.539 37.91C126.593 36.79 129.136 35.9967 132.169 35.53L143.859 33.64V41.34L134.059 43.09C132.566 43.37 131.423 43.86 130.629 44.56C129.836 45.2133 129.439 46.17 129.439 47.43C129.439 48.5967 129.883 49.5067 130.769 50.16C131.656 50.8133 132.753 51.14 134.059 51.14C135.786 51.14 137.303 50.7667 138.609 50.02C139.916 49.2733 140.919 48.27 141.619 47.01C142.366 45.7033 142.739 44.28 142.739 42.74V32.8C142.739 31.3533 142.156 30.14 140.989 29.16C139.869 28.18 138.329 27.69 136.369 27.69C134.503 27.69 132.846 28.2033 131.399 29.23C129.999 30.2567 128.973 31.61 128.319 33.29L119.919 29.3C120.666 27.1533 121.856 25.31 123.489 23.77C125.123 22.23 127.083 21.04 129.369 20.2C131.656 19.36 134.153 18.94 136.859 18.94C140.079 18.94 142.926 19.5233 145.399 20.69C147.873 21.8567 149.786 23.49 151.139 25.59C152.539 27.6433 153.239 30.0467 153.239 32.8V58H143.439V51.84L145.819 51.42C144.699 53.1 143.463 54.5 142.109 55.62C140.756 56.6933 139.239 57.4867 137.559 58C135.879 58.56 134.013 58.84 131.959 58.84ZM131.749 13.2L135.809 0.599996H149.319L142.039 13.2H131.749ZM182.36 58.84C179.747 58.84 177.32 58.3733 175.08 57.44C172.887 56.46 171.113 55.0367 169.76 53.17L170.74 51V58H160.94V5.01H171.44V27.06L169.83 24.96C171.09 23.0467 172.793 21.5767 174.94 20.55C177.133 19.4767 179.63 18.94 182.43 18.94C186.07 18.94 189.36 19.8267 192.3 21.6C195.24 23.3733 197.573 25.7767 199.3 28.81C201.027 31.7967 201.89 35.1567 201.89 38.89C201.89 42.5767 201.027 45.9367 199.3 48.97C197.62 52.0033 195.31 54.4067 192.37 56.18C189.43 57.9533 186.093 58.84 182.36 58.84ZM181.1 49.39C183.06 49.39 184.787 48.9467 186.28 48.06C187.773 47.1733 188.94 45.9367 189.78 44.35C190.62 42.7633 191.04 40.9433 191.04 38.89C191.04 36.8367 190.62 35.04 189.78 33.5C188.94 31.9133 187.773 30.6767 186.28 29.79C184.787 28.8567 183.06 28.39 181.1 28.39C179.233 28.39 177.553 28.8333 176.06 29.72C174.613 30.6067 173.47 31.8433 172.63 33.43C171.837 35.0167 171.44 36.8367 171.44 38.89C171.44 40.9433 171.837 42.7633 172.63 44.35C173.47 45.9367 174.613 47.1733 176.06 48.06C177.553 48.9467 179.233 49.39 181.1 49.39ZM208.039 58V19.78H218.539V58H208.039ZM208.039 16.35V5.85H218.539V16.35H208.039ZM226.223 58V5.01H236.723V58H226.223ZM262.817 58.84C258.757 58.84 255.233 57.9533 252.247 56.18C249.26 54.36 246.95 51.9333 245.317 48.9C243.683 45.8667 242.867 42.5067 242.867 38.82C242.867 34.9933 243.707 31.5867 245.387 28.6C247.113 25.6133 249.423 23.2567 252.317 21.53C255.21 19.8033 258.477 18.94 262.117 18.94C265.15 18.94 267.833 19.43 270.167 20.41C272.5 21.3433 274.46 22.6733 276.047 24.4C277.68 26.1267 278.917 28.1333 279.757 30.42C280.597 32.66 281.017 35.11 281.017 37.77C281.017 38.5167 280.97 39.2633 280.877 40.01C280.83 40.71 280.713 41.3167 280.527 41.83H251.897V34.13H274.577L269.607 37.77C270.073 35.7633 270.05 33.99 269.537 32.45C269.023 30.8633 268.113 29.6267 266.807 28.74C265.547 27.8067 263.983 27.34 262.117 27.34C260.297 27.34 258.733 27.7833 257.427 28.67C256.12 29.5567 255.14 30.8633 254.487 32.59C253.833 34.3167 253.577 36.4167 253.717 38.89C253.53 41.0367 253.787 42.9267 254.487 44.56C255.187 46.1933 256.26 47.4767 257.707 48.41C259.153 49.2967 260.903 49.74 262.957 49.74C264.823 49.74 266.41 49.3667 267.717 48.62C269.07 47.8733 270.12 46.8467 270.867 45.54L279.267 49.53C278.52 51.3967 277.33 53.03 275.697 54.43C274.11 55.83 272.22 56.9267 270.027 57.72C267.833 58.4667 265.43 58.84 262.817 58.84Z" fill="white"/>
</svg>
