<svg width="229" height="45" viewBox="0 0 229 45" fill="none" xmlns="http://www.w3.org/2000/svg">
<path d="M0.24 35V1.475H6.36V16.1H20.625V1.475H26.79V35H20.625V21.5H6.36V35H0.24ZM44.3579 35.54C41.8379 35.54 39.6329 34.97 37.7429 33.83C35.8529 32.69 34.3829 31.145 33.3329 29.195C32.2829 27.245 31.7579 25.085 31.7579 22.715C31.7579 20.255 32.2829 18.08 33.3329 16.19C34.4129 14.27 35.8679 12.755 37.6979 11.645C39.5579 10.535 41.6279 9.98 43.9079 9.98C45.8279 9.98 47.5079 10.295 48.9479 10.925C50.4179 11.555 51.6629 12.425 52.6829 13.535C53.7029 14.645 54.4829 15.92 55.0229 17.36C55.5629 18.77 55.8329 20.3 55.8329 21.95C55.8329 22.37 55.8029 22.805 55.7429 23.255C55.7129 23.705 55.6379 24.095 55.5179 24.425H36.6179V19.925H52.1879L49.3979 22.04C49.6679 20.66 49.5929 19.43 49.1729 18.35C48.7829 17.27 48.1229 16.415 47.1929 15.785C46.2929 15.155 45.1979 14.84 43.9079 14.84C42.6779 14.84 41.5829 15.155 40.6229 15.785C39.6629 16.385 38.9279 17.285 38.4179 18.485C37.9379 19.655 37.7579 21.08 37.8779 22.76C37.7579 24.26 37.9529 25.595 38.4629 26.765C39.0029 27.905 39.7829 28.79 40.8029 29.42C41.8529 30.05 43.0529 30.365 44.4029 30.365C45.7529 30.365 46.8929 30.08 47.8229 29.51C48.7829 28.94 49.5329 28.175 50.0729 27.215L54.8429 29.555C54.3629 30.725 53.6129 31.76 52.5929 32.66C51.5729 33.56 50.3579 34.265 48.9479 34.775C47.5679 35.285 46.0379 35.54 44.3579 35.54ZM63.2716 44.945C62.6116 44.945 61.9666 44.885 61.3366 44.765C60.7066 44.675 60.1366 44.51 59.6266 44.27V39.32C60.0166 39.41 60.4816 39.5 61.0216 39.59C61.5916 39.68 62.1166 39.725 62.5966 39.725C63.9466 39.725 64.9216 39.41 65.5216 38.78C66.1516 38.15 66.7066 37.325 67.1866 36.305L68.8066 32.525L68.7166 37.475L58.0516 10.52H64.3966L71.8666 30.41H69.6166L77.0416 10.52H83.4316L72.7666 37.475C72.1366 39.065 71.3716 40.415 70.4716 41.525C69.5716 42.635 68.5216 43.475 67.3216 44.045C66.1516 44.645 64.8016 44.945 63.2716 44.945ZM105.827 35.27C103.067 35.27 100.922 34.52 99.3919 33.02C97.8919 31.49 97.1419 29.345 97.1419 26.585V15.785H92.9119V10.52H93.3619C94.5619 10.52 95.4919 10.205 96.1519 9.575C96.8119 8.945 97.1419 8.03 97.1419 6.83V4.94H103.037V10.52H108.662V15.785H103.037V26.27C103.037 27.08 103.172 27.77 103.442 28.34C103.742 28.91 104.192 29.345 104.792 29.645C105.422 29.945 106.217 30.095 107.177 30.095C107.387 30.095 107.627 30.08 107.897 30.05C108.197 30.02 108.482 29.99 108.752 29.96V35C108.332 35.06 107.852 35.12 107.312 35.18C106.772 35.24 106.277 35.27 105.827 35.27ZM113.256 35V0.934999H119.151V15.335L118.341 14.48C118.911 13.01 119.841 11.9 121.131 11.15C122.451 10.37 123.981 9.98 125.721 9.98C127.521 9.98 129.111 10.37 130.491 11.15C131.901 11.93 132.996 13.025 133.776 14.435C134.556 15.815 134.946 17.42 134.946 19.25V35H129.051V20.645C129.051 19.565 128.841 18.635 128.421 17.855C128.001 17.075 127.416 16.475 126.666 16.055C125.946 15.605 125.091 15.38 124.101 15.38C123.141 15.38 122.286 15.605 121.536 16.055C120.786 16.475 120.201 17.075 119.781 17.855C119.361 18.635 119.151 19.565 119.151 20.645V35H113.256ZM151.541 35.54C149.021 35.54 146.816 34.97 144.926 33.83C143.036 32.69 141.566 31.145 140.516 29.195C139.466 27.245 138.941 25.085 138.941 22.715C138.941 20.255 139.466 18.08 140.516 16.19C141.596 14.27 143.051 12.755 144.881 11.645C146.741 10.535 148.811 9.98 151.091 9.98C153.011 9.98 154.691 10.295 156.131 10.925C157.601 11.555 158.846 12.425 159.866 13.535C160.886 14.645 161.666 15.92 162.206 17.36C162.746 18.77 163.016 20.3 163.016 21.95C163.016 22.37 162.986 22.805 162.926 23.255C162.896 23.705 162.821 24.095 162.701 24.425H143.801V19.925H159.371L156.581 22.04C156.851 20.66 156.776 19.43 156.356 18.35C155.966 17.27 155.306 16.415 154.376 15.785C153.476 15.155 152.381 14.84 151.091 14.84C149.861 14.84 148.766 15.155 147.806 15.785C146.846 16.385 146.111 17.285 145.601 18.485C145.121 19.655 144.941 21.08 145.061 22.76C144.941 24.26 145.136 25.595 145.646 26.765C146.186 27.905 146.966 28.79 147.986 29.42C149.036 30.05 150.236 30.365 151.586 30.365C152.936 30.365 154.076 30.08 155.006 29.51C155.966 28.94 156.716 28.175 157.256 27.215L162.026 29.555C161.546 30.725 160.796 31.76 159.776 32.66C158.756 33.56 157.541 34.265 156.131 34.775C154.751 35.285 153.221 35.54 151.541 35.54ZM167.484 35V10.52H173.019V15.965L172.569 15.155C173.139 13.325 174.024 12.05 175.224 11.33C176.454 10.61 177.924 10.25 179.634 10.25H181.074V15.47H178.959C177.279 15.47 175.929 15.995 174.909 17.045C173.889 18.065 173.379 19.505 173.379 21.365V35H167.484ZM195.925 35.54C193.405 35.54 191.2 34.97 189.31 33.83C187.42 32.69 185.95 31.145 184.9 29.195C183.85 27.245 183.325 25.085 183.325 22.715C183.325 20.255 183.85 18.08 184.9 16.19C185.98 14.27 187.435 12.755 189.265 11.645C191.125 10.535 193.195 9.98 195.475 9.98C197.395 9.98 199.075 10.295 200.515 10.925C201.985 11.555 203.23 12.425 204.25 13.535C205.27 14.645 206.05 15.92 206.59 17.36C207.13 18.77 207.4 20.3 207.4 21.95C207.4 22.37 207.37 22.805 207.31 23.255C207.28 23.705 207.205 24.095 207.085 24.425H188.185V19.925H203.755L200.965 22.04C201.235 20.66 201.16 19.43 200.74 18.35C200.35 17.27 199.69 16.415 198.76 15.785C197.86 15.155 196.765 14.84 195.475 14.84C194.245 14.84 193.15 15.155 192.19 15.785C191.23 16.385 190.495 17.285 189.985 18.485C189.505 19.655 189.325 21.08 189.445 22.76C189.325 24.26 189.52 25.595 190.03 26.765C190.57 27.905 191.35 28.79 192.37 29.42C193.42 30.05 194.62 30.365 195.97 30.365C197.32 30.365 198.46 30.08 199.39 29.51C200.35 28.94 201.1 28.175 201.64 27.215L206.41 29.555C205.93 30.725 205.18 31.76 204.16 32.66C203.14 33.56 201.925 34.265 200.515 34.775C199.135 35.285 197.605 35.54 195.925 35.54ZM222.882 24.83L222.477 1.475H228.462L228.057 24.83H222.882ZM222.477 35V28.7H228.462V35H222.477Z" fill="white"/>
</svg>
